<?xml version="1.0" encoding="utf-8"?>
<!DOCTYPE svg PUBLIC "-//W3C//DTD SVG 1.0//EN" "http://www.w3.org/TR/2001/REC-SVG-20010904/DTD/svg10.dtd">
<svg version="1.0" xmlns="http://www.w3.org/2000/svg" width="405px" height="486px" viewBox="0 0 405 486" preserveAspectRatio="xMidYMid meet">
 <g fill="#584637">
  <path d="M209.7 457.1 c-8.4 -2.8 -13.7 -6.5 -13.7 -9.7 l0 -2.5 4.3 3 c2.3 1.6 7.1 3.9 10.6 5.1 5.8 1.9 7.2 2 15 1.1 4.8 -0.6 11.1 -1.3 14.1 -1.6 6.2 -0.5 14.5 -1.6 17.5 -2.1 8 -1.5 13.7 -3.1 18.4 -5.1 6.7 -2.9 10.1 -3 10.8 -0.3 0.9 3.4 8.7 2.1 14.3 -2.5 0.8 -0.6 4 -2 7 -2.9 3 -1 7.1 -2.8 9 -4 11.6 -7.4 15.1 -10.1 17.2 -13.4 4 -6.1 10.5 -24.1 11.8 -32.7 0.7 -4.4 1.8 -10.5 2.5 -13.5 1.4 -5.6 2.5 -15 3 -25 0.1 -3 0.5 -7.4 1 -9.8 0.5 -3.4 0.3 -4.7 -1 -6.2 -1.7 -1.9 -1.7 -2 0.6 -2.8 1.3 -0.5 3.9 -1.3 5.7 -1.7 2.2 -0.4 5.8 -3 9.9 -6.9 6 -5.7 6.6 -6.6 8.4 -13.5 l1.9 -7.4 -2.5 -4.2 c-4.2 -7.2 -10.2 -8.8 -22 -6 -8.2 2 -9.6 1.9 -6.7 -0.5 3.6 -3 14.8 -6.3 19.5 -5.7 10.8 1.5 18.4 14.9 14 24.8 -1.1 2.4 -2.3 5.6 -2.6 7.1 -1 3.9 -13.2 14.6 -18.1 15.9 l-4.1 1 -0.1 12.7 c0 12.1 -0.5 16 -5.5 43.2 -2.3 12.6 -3.1 15.2 -7.9 25.5 -5.8 12.3 -13.3 18.8 -30.2 26.1 -4.6 1.9 -10.5 4.7 -13.3 6.1 -6.2 3.1 -10.5 4.5 -10.5 3.2 0 -1.4 -3.8 -1.1 -4.2 0.3 -0.3 0.9 -1.2 0.8 -3.3 -0.6 -2.7 -1.8 -2.9 -1.8 -9.9 0.2 -9.3 2.6 -17.6 4 -31.1 5.2 -22.7 2.1 -23.7 2.1 -29.8 0.1z"/>
  <path d="M176.3 431.7 c-7.4 -8.1 -14.6 -18.8 -13.5 -19.9 0.6 -0.6 2.4 0.9 4.8 3.8 2.2 2.5 6.3 7.3 9.2 10.4 4.2 4.6 5.3 6.4 5 8.6 -0.3 2.7 -0.4 2.7 -5.5 -2.9z"/>
  <path d="M141.8 411.3 c-1 -0.3 -1.8 -1.3 -1.8 -2.3 0 -1.5 0.8 -1.8 4.4 -1.8 2.4 0 6.5 -0.8 9.1 -1.7 3 -1 5.2 -1.2 5.8 -0.6 1.4 1.4 -3.1 3.9 -9.2 5.1 -2.9 0.5 -5.6 1.1 -5.9 1.3 -0.4 0.2 -1.5 0.2 -2.4 0z"/>
  <path d="M237 408.5 c-1.6 -1.9 -0.5 -4.9 1.6 -4.1 0.9 0.3 2 0.6 2.5 0.6 0.5 0 0.9 1.1 0.9 2.5 0 2.9 -2.9 3.5 -5 1z"/>
  <path d="M260.5 408 c-0.4 -0.6 -1.8 -1 -3.1 -0.7 -2 0.3 -2.4 0 -2.4 -1.9 0 -1.7 0.6 -2.4 2 -2.4 1.4 0 2 -0.7 2 -2.4 0 -1.3 0.7 -2.9 1.5 -3.6 0.8 -0.7 1.5 -1.9 1.5 -2.6 0 -0.8 1 -1.4 2.5 -1.4 2.4 0 2.6 1.4 0.5 4.5 -2.7 4.1 3.2 7.9 7.8 4.9 3.5 -2.3 4.5 -5.6 2.1 -7.3 -1 -0.7 -1.9 -1.7 -1.9 -2.2 0 -1.4 6.8 -1.1 7.3 0.4 0.3 0.7 0.6 0.5 0.6 -0.5 0.1 -1.4 1 -1.8 3.6 -1.8 3.5 0 4.7 1.6 2 2.6 -0.8 0.4 -1.5 1.3 -1.5 2 0 0.8 -0.6 1.7 -1.4 2 -0.8 0.3 -2.6 2.3 -4.1 4.4 -3.2 4.6 -5.3 5.5 -11.9 5.1 -3 -0.2 -5.1 0.2 -5.6 0.9 -0.6 0.9 -0.9 0.9 -1.5 0z"/>
  <path d="M248 395.5 c1.7 -4.6 4.9 -10.1 6.4 -11.4 1.4 -1.2 1.3 -1.5 -0.9 -3.3 -2.6 -2.1 -3.4 -4.8 -1.2 -4.8 0.6 0 3.2 0.9 5.6 2 l4.3 2 4.2 -3.7 c2.2 -2 4.4 -4.1 4.8 -4.7 0.5 -0.8 1.1 -0.7 2 0.2 0.9 0.9 0.9 1.5 0 2.4 -1.9 1.9 -1.4 2.5 2.3 3.2 5.2 1 4.5 3.6 -1.6 6.4 -2.7 1.3 -5.2 2.9 -5.6 3.7 -0.3 0.9 -1.9 1.5 -3.9 1.5 -3.2 0 -3.4 -0.2 -3.5 -3.2 0 -2.8 -0.2 -3 -0.9 -1.3 -0.4 1.2 -1.5 2.7 -2.4 3.4 -1 0.8 -2.6 3.4 -3.7 5.8 -1.5 3.4 -2.5 4.3 -4.4 4.3 -2.2 0 -2.4 -0.3 -1.5 -2.5z"/>
  <path d="M117.4 391.8 c-2 -9.2 0.3 -14.9 8.5 -21.2 8.6 -6.5 15.1 -8.9 22.2 -8.3 5.8 0.5 12.4 3.2 11.4 4.7 -0.3 0.5 -2.1 0.4 -4.2 -0.2 -7.2 -2 -14.5 -0.6 -22.4 4.3 -4.3 2.6 -8.1 5.7 -9.2 7.6 -1.7 2.9 -2.5 10.6 -1.6 14.3 0.3 0.9 -0.4 1.6 -1.8 1.8 -1.7 0.2 -2.3 -0.3 -2.9 -3z"/>
  <path d="M290.2 388.3 c0.2 -2.2 0.9 -2.9 3.1 -3.1 3.4 -0.4 3.7 2 0.5 4.2 -3.2 2.3 -4 2 -3.6 -1.1z"/>
  <path d="M290 380 c0 -1.3 0.7 -2 1.9 -2 2.3 0 3.6 -1.6 4.5 -5.3 0.7 -3 2.3 -3.2 4 -0.5 0.7 1.1 0.6 2.9 -0.4 5.7 -1.3 4 -1.5 4.1 -5.7 4.1 -3.6 0 -4.3 -0.3 -4.3 -2z"/>
  <path d="M216.5 358 c-2 -3.9 -2 -10.9 0 -11.7 2.2 -0.8 2.4 -0.5 3.1 7.5 0.8 7.9 -0.4 9.5 -3.1 4.2z"/>
  <path d="M224.7 356.3 c-0.4 -0.3 -0.7 -2.8 -0.7 -5.5 0 -4.8 0 -4.8 3.4 -4.8 3.8 0 4.6 1.2 4.6 7.1 0 3.8 -0.1 3.9 -3.3 3.9 -1.9 0 -3.7 -0.3 -4 -0.7z"/>
  <path d="M217 343 c0 -0.5 1 -1.8 2.1 -2.9 1.7 -1.6 2 -2.7 1.5 -5.1 -0.6 -3.3 0.9 -7.4 2.4 -6.5 1.2 0.7 4 6.5 4 8.2 0 0.7 -0.4 1.3 -1 1.3 -0.5 0 -1 0.9 -1 2 0 1 -0.9 2.4 -1.9 3 -2.5 1.3 -6.1 1.3 -6.1 0z"/>
  <path d="M151.7 337.3 c-0.7 -2.7 -1.2 -5 -1 -5.3 0.6 -0.7 4.1 4.1 5.2 7.3 0.9 2.3 0.7 2.7 -0.9 2.7 -1.4 0 -2.2 -1.2 -3.3 -4.7z"/>
  <path d="M194.3 340.4 c-0.7 -0.3 -1.3 -1.4 -1.3 -2.5 0 -1.4 0.7 -1.9 3 -1.9 2.4 0 3.8 -1.1 8 -6.2 2.7 -3.5 6.9 -8.5 9.3 -11.2 2.3 -2.8 4.6 -6.7 5.2 -9 0.8 -3.1 1.5 -4.1 3 -4.1 1.7 0 2 0.6 1.7 4.4 -0.3 4.6 -2.8 10.1 -4.7 10.1 -0.5 0 -2.1 1.6 -3.4 3.5 -1.3 1.9 -2.7 3.5 -3.2 3.5 -0.5 0 -0.9 0.5 -0.9 1 0 2.1 -5.3 9 -7.4 9.6 -1.1 0.4 -2.3 1 -2.6 1.5 -0.7 1 -5.2 1.9 -6.7 1.3z"/>
  <path d="M281.4 337.5 c-1.5 -2.3 -1.6 -3.6 -0.5 -10.9 0.6 -4.6 0.9 -9 0.6 -9.8 -0.5 -1.2 0.3 -1.7 2.7 -2.1 1.8 -0.2 3.6 -0.3 4.1 0 1.3 0.7 0.8 4.3 -0.7 4.3 -1.6 0 -2.6 5.1 -2.6 14.3 0 7.2 -0.9 8.2 -3.6 4.2z"/>
  <path d="M144 332.1 c0 -3.7 6.5 -12.8 14.3 -20.1 12.4 -11.5 22.5 -18.4 46.2 -31.2 23.7 -12.8 23.7 -12.8 49.3 -21.4 8.8 -2.9 9.2 -2.9 9.2 -0.4 0 1.1 -0.1 2 -0.3 2 -1 0 -17.4 5.3 -24.6 7.9 -11.9 4.4 -46.3 22.4 -60 31.4 -3 2 -8.4 6.5 -12.1 10.1 -3.7 3.6 -7.3 6.6 -7.9 6.6 -0.6 0 -1.1 0.7 -1.1 1.5 0 0.8 -0.6 1.5 -1.4 1.5 -0.8 0 -1.3 1.1 -1.3 2.6 0 1.5 -0.8 3.1 -1.7 3.6 -0.9 0.5 -1.6 1.5 -1.6 2.3 0 1.2 -5 5.5 -6.4 5.5 -0.3 0 -0.6 -0.9 -0.6 -1.9z"/>
  <path d="M140.5 317.3 c-0.5 -1 -1.6 -3.8 -2.5 -6.3 -0.9 -2.5 -2.1 -5.3 -2.5 -6.3 -0.6 -1.6 -0.4 -1.8 1.6 -1.5 1.9 0.2 2.8 1.5 4.6 6.3 2.6 7.1 2.8 9.5 0.9 9.5 -0.8 0 -1.7 -0.8 -2.1 -1.7z"/>
  <path d="M353.1 306 c-2.4 -1.4 -1.6 -6 1.5 -8.5 3.5 -2.8 5.7 -3.5 7.5 -2.4 1.1 0.6 0.5 1.6 -2.3 3.9 -2.1 1.8 -3.8 4 -3.8 5 0 2.3 -1.2 3.1 -2.9 2z"/>
  <path d="M133.2 299.2 c-1.4 -2.8 -7.2 -16.5 -7.2 -16.9 0 -0.2 1.1 -0.3 2.5 -0.3 1.4 0 2.5 0.5 2.5 1.1 0 0.6 0.6 2.5 1.4 4.2 0.8 1.8 2.3 5 3.2 7.2 1 2.2 2.1 4.8 2.6 5.8 1.4 3.1 -3.5 2.1 -5 -1.1z"/>
  <path d="M272.3 295.9 c-6.8 -5.1 -7.3 -8.7 -0.9 -5.8 1.6 0.8 3.4 0.8 5.3 0.2 3.4 -1.2 9.3 0.2 9.3 2.1 0 0.8 -1.5 1.8 -3.2 2.2 -1.8 0.4 -2.7 0.9 -2 1.1 0.6 0.3 1.2 1.3 1.2 2.4 0 3.1 -4 2.3 -9.7 -2.2z"/>
  <path d="M295.3 295.4 c-1.9 -1.9 -1.6 -3.1 1 -3.8 4.3 -1.1 6.9 -0.7 6.5 1.1 -0.5 2.5 -5.9 4.5 -7.5 2.7z"/>
  <path d="M337.7 288.3 c-0.4 -0.3 -0.7 -2.7 -0.7 -5.3 0 -2.6 -0.9 -7.3 -1.9 -10.5 -2 -6 -1.9 -7.5 0.3 -7.5 1.9 0 3.3 3.7 4.6 12.3 0.9 6.4 0.9 8 -0.3 9.7 -0.7 1.1 -1.7 1.7 -2 1.3z"/>
  <path d="M119.9 265.8 c-1 -11.6 2.9 -12 4.5 -0.5 0.7 4.5 0.6 4.7 -1.7 4.7 -2.2 0 -2.5 -0.5 -2.8 -4.2z"/>
  <path d="M330 257.5 c0 -2.9 0.7 -3.1 3.8 -0.9 2.7 1.8 2 3.4 -1.4 3.4 -1.9 0 -2.4 -0.5 -2.4 -2.5z"/>
  <path d="M316.8 257.2 c-4.7 -1.1 -5.8 -1.8 -5.8 -3.4 0 -1.8 0.5 -2 3.1 -1.4 1.7 0.3 4.3 0.6 5.8 0.6 3.8 0 5.4 1.4 4.6 3.9 -0.3 1.1 -0.9 2 -1.3 2 -0.4 -0.1 -3.3 -0.8 -6.4 -1.7z"/>
  <path d="M272 255.7 c0 -1.9 1.1 -2.2 12.5 -4.1 11.1 -1.9 23.8 -1.1 24.3 1.5 0.3 1.5 -1.3 1.8 -12 2.3 -6.8 0.3 -15.1 0.9 -18.5 1.2 -5.2 0.5 -6.3 0.3 -6.3 -0.9z"/>
  <path d="M116.2 251 c-0.9 -3.8 -0.9 -4 1.4 -4 2.1 0 2.4 0.4 2.4 4 0 2.7 -0.4 4 -1.4 4 -0.8 0 -1.8 -1.8 -2.4 -4z"/>
  <path d="M102 251 c0 -1.9 0.5 -2.1 5.8 -1.8 4.3 0.2 5.7 0.7 5.7 1.8 0 1.1 -1.4 1.6 -5.7 1.8 -5.3 0.3 -5.8 0.1 -5.8 -1.8z"/>
  <path d="M333.4 251.6 c-0.3 -0.9 -0.4 -2.2 -0.1 -2.9 0.6 -1.6 -2.7 -21.7 -4 -24.3 -0.6 -1 -1.3 -3.5 -1.6 -5.4 -0.4 -1.9 -1.4 -6.6 -2.2 -10.5 -0.9 -3.8 -2.2 -11 -3 -16 -0.8 -4.9 -2 -11.1 -2.7 -13.7 -0.6 -2.6 -0.9 -5 -0.6 -5.3 1.3 -1.4 3.8 1 4.4 4.3 1.5 8.5 8.5 42.4 10.4 50.5 2.4 10.5 3.1 23.8 1.3 24.4 -0.7 0.3 -1.6 -0.2 -1.9 -1.1z"/>
  <path d="M113.6 242.4 c-1.1 -2.9 -0.7 -6.4 0.9 -6.4 1.1 0 4.5 5.7 4.5 7.6 0 1.2 -4.9 0.1 -5.4 -1.2z"/>
  <path d="M64 237.4 c-2.2 -2 -4 -4.2 -4 -4.8 0 -1.3 -9 -10.2 -16.7 -16.5 -5.7 -4.6 -6.5 -6.1 -3.2 -6.1 2.9 0 19.3 14.4 23.4 20.6 1.9 2.8 4.1 5.6 4.9 6.3 1.8 1.5 2.1 4.1 0.6 4.1 -0.5 0 -2.8 -1.6 -5 -3.6z"/>
  <path d="M94.7 238.9 c-4.7 -1.1 -7.7 -2.6 -7.7 -3.9 0 -1.3 4 -1.3 9.8 0.1 7.6 1.8 7.6 1.7 6.2 3.4 -1.4 1.7 -2.7 1.7 -8.3 0.4z"/>
  <path d="M222.1 232.7 c-3.1 -1.5 -6.3 -6.9 -5.5 -9.1 0.9 -2.4 2.1 -1.9 3.3 1.4 1.7 4.9 9.1 6.4 9.1 1.9 0 -1.2 0.7 -1.9 2 -1.9 1.7 0 2 0.7 2 3.9 0 3.2 -0.4 4 -2.2 4.5 -3.5 0.9 -6 0.7 -8.7 -0.7z"/>
  <path d="M112 227.4 c0 -1.4 4 -6.8 11.3 -15 1.5 -1.7 3.4 -4 4.1 -5 1.3 -1.7 1.5 -1.7 3 -0.2 1.5 1.6 1.3 2 -2.2 5.7 -2.1 2.3 -4.4 5.2 -5 6.6 -0.8 1.6 -2.3 2.8 -4.2 3.2 -2.2 0.4 -2.9 1 -2.5 2.1 0.6 1.7 -1.2 4.2 -3.1 4.2 -0.8 0 -1.4 -0.7 -1.4 -1.6z"/>
  <path d="M100.5 225.9 c-9.2 -2.1 -19 -8.9 -18.3 -12.5 0.3 -1.7 0.5 -1.7 2.3 0.3 2.9 3 14 8.4 18.6 9 2.9 0.4 3.9 1 3.7 2.1 -0.4 2 -1.5 2.2 -6.3 1.1z"/>
  <path d="M237.7 222.6 c0.3 -1.3 0 -3.3 -0.6 -4.5 -1.1 -1.9 -0.9 -2.1 1.9 -2.1 2.9 0 3 0.2 3 4.5 0 4.1 -0.2 4.5 -2.4 4.5 -1.9 0 -2.2 -0.4 -1.9 -2.4z"/>
  <path d="M214.1 206.3 c-1.8 -0.9 -3.8 -2.7 -4.3 -3.9 -1.4 -3 -0.2 -8.7 2.2 -10.9 1.6 -1.4 1.9 -2.6 1.4 -5.2 -0.5 -2.6 -0.3 -3.3 1 -3.3 0.8 0 2 0.9 2.6 2.1 1 1.7 1.8 1.9 5 1.4 3.9 -0.7 11.9 1.1 13.2 2.9 0.3 0.5 0.1 1.7 -0.5 2.6 -1 1.7 -1.3 1.7 -4.8 0.1 -2.2 -1 -5.3 -1.5 -7.3 -1.3 -3.4 0.4 -3.6 0.6 -3.6 4.3 0 3.9 -1.3 5.2 -2.4 2.4 -0.9 -2.3 -2.6 -1.8 -2.6 0.9 0 1.3 0.9 3 2.1 3.8 1.3 0.8 2 2.1 1.7 3.5 -0.3 2.2 -0.4 2.2 -3.7 0.6z"/>
  <path d="M132.1 203.3 c1.9 -2.2 9.1 -9 15.9 -14.7 5.2 -4.4 5.5 -4.6 5.8 -2.5 0.3 1.4 -0.3 2.8 -1.5 3.6 -1 0.7 -5 4.5 -8.9 8.3 -5.4 5.2 -7.8 7 -9.9 7 -2.4 0 -2.6 -0.2 -1.4 -1.7z"/>
  <path d="M122.9 198.8 c-0.6 -1.3 -5.1 -8.6 -9.9 -16.3 -4.8 -7.7 -9.3 -15.8 -10 -18 -0.7 -2.2 -1.6 -5 -2.1 -6.2 -0.8 -2.1 -0.6 -2.3 2.2 -2.3 3.3 0 6.8 3.2 6.9 6.3 0 1 0.8 1.7 1.8 1.7 2.5 0 4.2 2 4.2 4.8 0 2.3 -0.2 2.2 -4.6 -1.8 -9.9 -9.1 -5.7 -0.7 13.9 27.8 1.6 2.2 2.6 4.6 2.2 5.1 -1.1 1.8 -3.4 1.2 -4.6 -1.1z"/>
  <path d="M327.6 191.3 c-0.4 -0.4 1.8 -3.2 4.8 -6.3 3 -3 7.2 -7.5 9.4 -9.9 2.3 -2.5 4.4 -4.1 5.1 -3.7 1.7 1.1 -0.4 4.3 -8.2 13 -6.3 7 -9.2 8.8 -11.1 6.9z"/>
  <path d="M120.8 175.9 c-3.5 -3.6 -4.9 -6.9 -3 -6.9 0.5 0 1.9 1.1 3.3 2.6 2.1 2.3 2.5 2.4 3.6 0.8 2.1 -2.9 4.5 -1 4.1 3.3 -0.4 5.3 -3.2 5.3 -8 0.2z"/>
  <path d="M164 178.5 c0 -2.1 8.8 -7.5 12.3 -7.5 4.2 0 3 1.7 -4.2 5.6 -7 3.8 -8.1 4.1 -8.1 1.9z"/>
  <path d="M185.8 168.2 c-1 -0.2 -1.8 -0.8 -1.8 -1.3 0 -1.4 7.1 -4.6 11.8 -5.3 3.7 -0.5 4.3 -0.3 4 1.2 -0.4 1.9 -11.1 6.1 -14 5.4z"/>
  <path d="M309.8 167.3 c-1.9 -0.5 -2.5 -4.3 -0.7 -4.3 2 0 4.9 2.1 4.9 3.5 0 1.5 -1 1.7 -4.2 0.8z"/>
  <path d="M202 161.7 c0 -2 4.5 -3.7 11.7 -4.4 5.8 -0.5 6.3 -0.4 6.3 1.4 0 1.7 -1.1 2.2 -6.9 3.2 -9 1.4 -11.1 1.4 -11.1 -0.2z"/>
  <path d="M122.5 159.3 c-0.3 -1 -0.9 -5.3 -1.2 -9.5 -0.5 -7.4 -0.4 -7.8 1.6 -7.8 1.9 0 2.1 0.6 2.1 6.4 0 3.5 0.3 7.8 0.6 9.5 0.5 2.4 0.3 3.1 -0.9 3.1 -0.8 0 -1.8 -0.8 -2.2 -1.7z"/>
  <path d="M275 157 c0 -2.1 1 -2.4 4.8 -1.4 3.6 1 2.7 3.4 -1.3 3.4 -2.8 0 -3.5 -0.4 -3.5 -2z"/>
  <path d="M351.5 153.7 c3.9 -7.2 5.3 -17.4 4.2 -30.7 -2 -23.8 -2 -26 -0.4 -26 2.6 0 3 1.7 3.5 13.9 1.1 29.6 0.1 39.7 -4.2 42.7 -1.2 0.8 -2 1.7 -1.8 2.1 0.2 0.4 -0.5 1 -1.6 1.4 -1.9 0.7 -1.9 0.5 0.3 -3.4z"/>
  <path d="M327.5 153.3 c1.7 -4.2 1.7 -5.3 0 -5.3 -1.3 0 -1.6 -0.8 -1.4 -3.3 0.2 -1.8 0 -3.8 -0.5 -4.5 -1.4 -2.3 0.5 -3.4 2.6 -1.6 1.6 1.6 2.1 1.6 2.8 0.4 0.6 -0.8 1 -2.1 1 -2.8 0 -2.9 2.5 -0.4 2.8 2.8 0.6 5.4 -4.1 16 -7.1 16 -0.5 0 -0.6 -0.8 -0.2 -1.7z"/>
  <path d="M279.4 151.9 c-0.7 -1.1 1.2 -2.9 3.2 -2.9 1.8 0 8.8 -8.2 12.4 -14.5 4.8 -8.3 7.7 -15.7 9.6 -24.5 1.6 -7.2 2.6 -9 5 -9 1 0 1.9 2.2 4.3 11.6 1.4 5.2 1.4 15.1 0.1 15.9 -0.5 0.3 -1 0.3 -1.1 -0.2 -0.5 -4.8 -0.7 -6.4 -1.3 -10.5 -1 -6 -3.2 -8.2 -4.1 -4.1 -1.9 8.2 -3.8 13.4 -7.2 19.3 -2.1 3.6 -4.5 7.8 -5.2 9.3 -3.7 7 -13.5 13.1 -15.7 9.6z"/>
  <path d="M190.4 146.8 c0.3 -2.4 0.9 -7.1 1.2 -10.5 0.4 -3.5 1.1 -6.3 1.5 -6.3 1 0 1.2 15.3 0.3 18.8 -0.4 1.2 -1.3 2.2 -2.1 2.2 -1.3 0 -1.4 -0.8 -0.9 -4.2z"/>
  <path d="M203.3 141.8 c0.5 -3.1 1.6 -7.6 3.8 -16.2 0.9 -3.3 1.3 -3.7 2.4 -2.5 2.5 2.5 -2.5 21.9 -5.6 21.9 -0.7 0 -0.9 -1.3 -0.6 -3.2z"/>
  <path d="M259 141.6 c0 -0.8 0.5 -2.7 1.1 -4.2 1.4 -3.8 4.9 -21.9 4.9 -25.5 0 -1.6 0.5 -2.9 1.1 -2.9 2.1 0 0.5 18.6 -2.2 26.4 -2.2 6.4 -4.9 9.9 -4.9 6.2z"/>
  <path d="M249.5 118.8 c0 -9.9 -0.4 -12.6 -3.3 -22.1 -3 -9.9 -3.4 -13.6 -1.2 -12.2 1.4 0.9 7 19.6 7.6 25.6 1.2 10.9 0.9 15.1 -1.3 17.8 -1.7 2.1 -1.8 1.8 -1.8 -9.1z"/>
  <path d="M51 113 c0 -1.1 -0.5 -2 -1 -2 -1.9 0 1 -4 4.3 -6 1.8 -1.1 3.5 -2 4 -2 1.3 0 0.8 4.9 -0.6 5.7 -0.8 0.4 -2.2 2 -3.2 3.6 -2 3.2 -3.5 3.5 -3.5 0.7z"/>
  <path d="M305 90.8 c0 -0.7 -0.6 -5.2 -1.4 -10 -1.2 -8.4 -0.7 -12.5 1.2 -10.3 0.7 0.8 4.2 18.1 4.2 20.8 0 0.4 -0.9 0.7 -2 0.7 -1.1 0 -2 -0.6 -2 -1.2z"/>
  <path d="M342.7 76.3 c-0.3 -0.5 -0.8 -2.4 -1.2 -4.3 -0.8 -4.1 -1.4 -6.3 -5.6 -19.3 -2.7 -8.4 -4 -10.8 -9.6 -17.8 -7.1 -8.7 -9.6 -10.4 -18.7 -12.9 -8.5 -2.4 -8.8 -4.5 -0.6 -3.7 9.1 0.8 14.5 4 20.8 12.2 7.4 9.9 9.7 14.2 12.7 24.7 2.8 9.6 4.3 24.7 2.2 21.1z"/>
  <path d="M84 70.7 c0 -1.9 0.6 -2.6 3.1 -3.1 4.9 -1 5.9 -0.7 5.9 1.3 0 1.2 -1 2.1 -2.7 2.5 -1.6 0.4 -3.6 0.9 -4.5 1.2 -1.4 0.4 -1.8 -0.1 -1.8 -1.9z"/>
  <path d="M146 61.8 c0 -3.5 1.5 -5.1 3.9 -4.3 2 0.6 2 0.8 0.6 3.6 -1.8 3.5 -4.5 3.9 -4.5 0.7z"/>
  <path d="M150.4 54.1 c0.9 -1 4.7 -3.9 8.5 -6.5 6.4 -4.5 11.9 -6.1 13.8 -4.2 1.3 1.3 -1.4 4.1 -4.6 4.7 -1.8 0.4 -5.6 2.3 -8.5 4.3 -5.8 4 -12.4 5.2 -9.2 1.7z"/>
  <path d="M197.4 33.4 c2.2 -2 5.3 -4.2 6.9 -5 2.6 -1.4 3.2 -1.4 6.7 0.5 l3.9 2 5.9 -2.4 5.8 -2.4 7.4 2 c10 2.6 11.5 2.5 15.4 -1.5 8.6 -8.6 26.4 -8.5 40.5 0.2 0.3 0.1 0 0.7 -0.7 1.4 -0.8 0.8 -2.4 0.7 -6.4 -0.4 -13.5 -4 -16.6 -4.3 -22.4 -2.3 -5.7 1.9 -10.9 5.8 -10 7.4 1.3 2 -3.3 2 -13.4 0 l-10.7 -2.1 -4.8 2.1 c-5.7 2.5 -6.9 2.6 -10.5 0.4 -2.5 -1.4 -3.3 -1.5 -5.7 -0.4 -1.5 0.7 -3 1.2 -3.2 1.1 -0.2 -0.1 -0.8 0.5 -1.3 1.4 -0.5 1 -2.2 1.6 -4.1 1.6 l-3.2 0 3.9 -3.6z"/>
 </g>
 <g fill="#4d412f">
  <path d="M215.8 458.4 c-1.7 -1.6 -0.6 -2.5 2.5 -2.3 1.8 0.2 3.8 -0.1 4.5 -0.5 1.6 -1 6.2 0.1 6.2 1.4 0 0.6 -0.3 1 -0.7 1 -0.5 0.1 -3.3 0.3 -6.3 0.6 -3 0.3 -5.8 0.2 -6.2 -0.2z"/>
  <path d="M252.2 454.4 c-1 -1.1 -0.6 -1.6 1.9 -3 1.7 -0.8 2.8 -1.1 2.5 -0.5 -0.4 0.7 0.1 1.1 1.3 1.1 1.2 0 2.1 0.4 2.1 0.9 0 0.5 -0.9 0.7 -2 0.4 -1.1 -0.3 -2 -0.1 -2 0.5 0 1.6 -2.4 2 -3.8 0.6z"/>
  <path d="M197.9 451.3 c-5.1 -3.5 -17.1 -14.7 -20.1 -18.9 -1.7 -2.4 -3.4 -4.1 -3.8 -3.9 -0.4 0.3 -1 -1 -1.4 -2.8 -0.5 -2.2 -0.9 -2.8 -1.5 -1.9 -0.6 1 -1.2 0.7 -2.4 -1.2 -1.9 -2.8 -2.2 -5.2 -0.8 -6 0.9 -0.6 6.7 7.3 6.3 8.7 -0.1 0.4 0.5 0.7 1.4 0.7 0.8 0 1.2 0.5 0.9 1 -0.3 0.6 0.5 1.4 1.9 1.9 1.3 0.6 3.7 2.6 5.3 4.6 1.5 1.9 6.3 6.3 10.6 9.8 4.2 3.4 7.7 6.7 7.7 7.4 0 2 -1.6 2.3 -4.1 0.6z"/>
  <path d="M281.3 451.9 c-0.7 -0.7 -1.3 -2.8 -1.3 -4.6 0 -2.7 0.5 -3.4 2.6 -3.9 1.4 -0.4 3 -0.2 3.7 0.5 0.8 0.8 0.7 1.1 -0.6 1.1 -3.1 0 -1.8 1.9 1.7 2.6 3.1 0.5 5.4 2.9 4.2 4.2 -1.2 1.2 -9.2 1.3 -10.3 0.1z"/>
  <path d="M138 410.8 c-1.9 -0.5 -4 -1.4 -4.6 -1.9 -0.7 -0.5 -2.1 -1.2 -3.2 -1.4 -2.6 -0.5 -7.2 -3.5 -7.2 -4.7 0 -0.5 0.5 -1.5 1.2 -2.2 1 -1 2.1 -0.7 5.8 1.6 5.5 3.5 12.7 5.8 16.3 5.1 2.3 -0.4 2.6 -0.2 2.1 1.2 -0.4 0.9 -1.8 2.1 -3.1 2.6 -2.8 1 -2.7 1 -7.3 -0.3z"/>
  <path d="M240.3 410.3 c-1.7 -0.3 -2.2 -1.1 -2.1 -2.9 0.2 -1.4 0.9 -2.4 1.8 -2.4 2.4 0 6.2 -4.7 9.8 -12.1 1.8 -3.7 4.1 -7.4 5.2 -8.4 1.8 -1.6 1.8 -1.7 -0.3 -3.8 -2 -2 -2 -2.1 -0.1 -2.7 1 -0.4 3.1 -0.1 4.6 0.6 3.7 1.9 3.9 1.9 8.7 -2.2 2.3 -2 4.5 -3.4 4.8 -3 0.4 0.3 0 0.6 -0.7 0.6 -0.7 0 -1 0.3 -0.7 0.6 0.4 0.4 -1.1 2.8 -3.3 5.4 -2.2 2.6 -4 5.2 -4 5.6 0 0.5 0.5 0.1 1.1 -0.8 0.5 -1 3.4 -2.9 6.4 -4.3 4.9 -2.4 6 -2.5 16.1 -2 5.9 0.3 10.9 0.7 11.2 0.9 0.2 0.3 -0.4 2.3 -1.4 4.4 -1.8 3.8 -9.4 10.2 -12.2 10.2 -0.6 0 -1.2 0.6 -1.2 1.3 0 0.7 -2.6 3.8 -5.7 6.9 -4.7 4.5 -6.8 5.8 -11.1 6.8 -5 1.2 -5.4 1.1 -6.8 -0.9 -1.4 -2 -1.7 -2 -4.4 -0.6 -3.7 1.9 -4 1.9 -4 -0.5 0 -1.1 -0.4 -2 -0.8 -2 -1.2 0 -4.2 3.4 -4.2 4.8 0 1.2 -2.3 1.3 -6.7 0.5z m33.6 -8.9 c1.1 -1 2.2 -2.9 2.5 -4 0.6 -1.8 0 -2.3 -3.9 -3.4 -3.6 -1 -4.8 -1 -6 0 -1.3 1.1 -1.5 0.8 -1.5 -1.4 0 -1.6 -0.6 -2.6 -1.4 -2.6 -0.8 0 -1.6 -0.5 -1.8 -1.1 -0.3 -0.9 -0.9 -0.9 -2.6 0 -3 1.6 -4 4 -3.5 8.3 0.5 3.3 0.7 3.6 2.4 2.5 1 -0.6 1.9 -1.7 1.9 -2.4 0 -0.7 1.1 -1.3 2.5 -1.3 2.9 0 3.1 0.7 1 3.7 -1.4 2 -1.4 2.3 0.2 3.2 2.7 1.5 8.2 0.7 10.2 -1.5z m7.1 -10.9 c0 -1.1 1.1 -1.5 4 -1.5 3.3 0 4 -0.3 4 -2 0 -1.5 0.7 -2 2.5 -2 1.4 0 2.5 -0.4 2.5 -1 0 -0.6 -3 -1 -6.9 -1 -6 0 -6.9 0.2 -7.4 2 -0.3 1.3 -1.4 2 -3 2 -3.2 0 -4.2 1.5 -2.5 3.4 1.8 2 6.8 2.1 6.8 0.1z"/>
  <path d="M122.4 377.6 c-1.5 -1.6 -0.6 -3.6 1.7 -3.6 2.2 0 2.4 0.8 0.6 3.1 -0.9 1.2 -1.5 1.3 -2.3 0.5z"/>
  <path d="M135.7 378.3 c-2.7 -2.7 5.6 -6.5 12.1 -5.5 4.2 0.6 4.2 3.9 0 3.4 -1.4 -0.2 -4.3 0.4 -6.3 1.2 -4.2 1.8 -4.9 1.9 -5.8 0.9z"/>
  <path d="M138.4 365.9 c-0.6 -1.1 2.4 -2.6 6.6 -3.3 4.5 -0.8 10.2 0.5 9.2 2 -0.8 1.3 -15 2.5 -15.8 1.3z"/>
  <path d="M224.6 353.8 c-1.1 -9.3 -0.9 -9.8 2.2 -9.8 3.4 0 5 2.8 5.9 10.2 l0.6 4.8 -4 0 -4 0 -0.7 -5.2z m3.5 -3.5 c-1 -1.7 -1 -1.6 -1.1 0.3 0 2.3 1.3 4.1 1.8 2.5 0.2 -0.6 -0.1 -1.8 -0.7 -2.8z"/>
  <path d="M157.7 354.9 c-0.9 -1.3 -2.2 -4.9 -3.1 -7.9 -0.8 -3 -1.8 -6.5 -2.2 -7.7 -0.4 -1.7 -0.2 -2.3 0.9 -2.3 1.6 0 3.4 3.9 6.1 12.9 1.8 6.1 0.8 8.9 -1.7 5z"/>
  <path d="M352.8 350.8 c-0.8 -2.2 0.4 -6.8 1.8 -6.8 2.1 0 1.8 4.8 -0.3 5.3 -1.7 0.4 -1.7 0.5 0 0.6 0.9 0 1.7 0.6 1.7 1.1 0 1.4 -2.7 1.3 -3.2 -0.2z"/>
  <path d="M215.6 349.4 c-0.3 -0.9 -0.3 -2.1 0.1 -2.7 0.4 -0.7 0.8 -1.9 1 -2.7 0.1 -0.8 1.2 -2.3 2.4 -3.3 1.9 -1.5 2.2 -2.7 2 -6.3 -0.3 -5.3 1.9 -6.1 4.3 -1.4 0.8 1.7 1 3 0.5 3 -0.5 0 -0.9 1.3 -0.9 3 0 1.8 -1 3.9 -2.5 5.4 -1.4 1.4 -2.5 3.4 -2.5 4.6 0 2.4 -3.5 2.8 -4.4 0.4z"/>
  <path d="M353 342 c0 -0.5 0.7 -1 1.5 -1 0.8 0 1.5 0.5 1.5 1 0 0.6 -0.7 1 -1.5 1 -0.8 0 -1.5 -0.4 -1.5 -1z"/>
  <path d="M195.2 340.2 c-2.3 -0.7 -1.2 -2.8 2.4 -4.1 4.3 -1.6 7.7 -4.7 6.8 -6.3 -0.4 -0.6 -0.3 -0.8 0.3 -0.5 0.5 0.4 1.6 -0.6 2.4 -2.1 0.8 -1.4 2.1 -3.4 2.9 -4.3 7.7 -8.3 9.1 -10.3 8.7 -12 -0.3 -1.1 -0.1 -1.7 0.4 -1.3 0.5 0.3 0.9 0 0.9 -0.5 0 -0.6 0.9 -1.1 2.1 -1.1 1.6 0 1.9 0.4 1.4 2.3 -1.6 5.7 -4.4 10.6 -8.8 15.1 -2.6 2.7 -5 5.8 -5.3 7 -0.9 3.7 -10.6 9 -14.2 7.8z"/>
  <path d="M286 340.1 c-2.6 -0.4 -3.6 -1.2 -3.8 -2.8 -0.3 -1.9 0.1 -2.3 2.1 -2.3 1.4 0 2.8 0.6 3 1.3 0.4 1 0.6 1 0.6 0 0.1 -0.8 1.4 -1.3 3.1 -1.3 2.5 0 3 0.4 3 2.4 0 2.1 -1.9 3.8 -3.8 3.5 -0.4 -0.1 -2.3 -0.4 -4.2 -0.8z"/>
  <path d="M357.5 331 c0.3 -0.5 1.3 -1 2.1 -1 0.8 0 1.2 0.5 0.9 1 -0.3 0.6 -1.3 1 -2.1 1 -0.8 0 -1.2 -0.4 -0.9 -1z"/>
  <path d="M282 325.3 c0 -4.4 1.4 -9.3 2.5 -9.3 0.8 0 1.5 -0.6 1.7 -1.2 0.3 -0.9 1.2 -0.8 3.1 0.5 3.4 2.2 3.4 3.5 0 3.9 -2.4 0.3 -2.8 0.8 -3.1 4.1 -0.3 2.9 -0.7 3.7 -2.3 3.7 -1.1 0 -1.9 -0.7 -1.9 -1.7z"/>
  <path d="M150.7 320 c0.3 -1 1.5 -2.5 2.7 -3.3 2 -1.4 3.3 -2.5 12.3 -10.8 3.8 -3.5 7.3 -5 7.3 -3.2 0 0.4 -4.2 4.9 -9.2 10 -6 6 -10 9.3 -11.4 9.3 -1.7 0 -2.1 -0.5 -1.7 -2z"/>
  <path d="M136.2 305.8 c-0.7 -0.7 -1.2 -1.7 -1.2 -2.2 0 -0.6 -0.7 -2.4 -1.5 -4 -1.3 -2.5 -1.3 -2.8 0.1 -2.2 0.9 0.3 2 0.6 2.5 0.6 1.3 0 3.8 6.1 3.2 7.7 -0.6 1.6 -1.6 1.6 -3.1 0.1z"/>
  <path d="M178.3 298 c-1 -1.5 -0.9 -1.7 0.8 -1.3 2 0.5 2.5 1.8 1.1 2.7 -0.4 0.2 -1.3 -0.4 -1.9 -1.4z"/>
  <path d="M292.7 297.3 c-2 -1.9 -0.5 -4.3 3.4 -5.3 4.3 -1.2 6.9 -0.8 6.9 1 0 0.6 -0.5 0.8 -1.2 0.4 -0.6 -0.4 -1.6 0 -2.2 0.8 -1 1.3 -4.8 3.8 -5.9 3.8 -0.2 0 -0.7 -0.3 -1 -0.7z"/>
  <path d="M185.6 291.7 c5.6 -4.4 14.4 -7.4 14.4 -4.9 0 1.4 -10.1 6.4 -13.5 6.7 l-3.5 0.3 2.6 -2.1z"/>
  <path d="M130.8 291.6 c-2.5 -1.8 -2.2 -2.6 0.7 -2.6 1.8 0 2.5 0.5 2.5 2 0 2.3 -0.8 2.5 -3.2 0.6z"/>
  <path d="M126.9 284 c-4.9 -6.7 -7 -16 -3.5 -16 1.5 0 6.8 14.4 6.4 17.3 -0.3 2 -0.5 1.9 -2.9 -1.3z"/>
  <path d="M208.6 281.4 c-0.3 -0.9 -0.6 -1.8 -0.6 -2 0 -1 6.4 -3.2 7.7 -2.7 2.4 0.9 1.3 2.4 -1.2 1.7 -1.9 -0.5 -2.4 -0.3 -2 0.7 0.3 0.8 -0.3 1.9 -1.4 2.6 -1.6 1 -2 0.9 -2.5 -0.3z"/>
  <path d="M222.2 274.1 c-1.9 -1.2 3.5 -4.9 8 -5.6 1.8 -0.3 2.7 -0.3 2.1 0.1 -0.7 0.3 -1.3 1.1 -1.3 1.8 0 0.7 -1.6 2 -3.5 2.9 -4.1 2 -3.6 1.9 -5.3 0.8z"/>
  <path d="M256.6 261.1 c-0.3 -0.5 0.1 -1.4 0.9 -2.1 1.9 -1.6 15.3 -5.2 18.8 -5.1 1.5 0.1 2.7 -0.3 2.7 -0.8 0 -2 3.5 -0.7 3.6 1.3 0.1 1.9 -1.2 2.4 -11.5 4.9 -12.7 3 -13.7 3.1 -14.5 1.8z"/>
  <path d="M327.7 259.6 c-3.2 -0.6 -6.2 -1.7 -6.6 -2.5 -0.7 -1.1 -0.9 -1.1 -1.4 0 -0.3 0.8 -0.6 0.3 -0.6 -1 -0.1 -2.3 0.1 -2.4 5.8 -1.8 6.4 0.5 11.3 3 10.4 5.3 -0.3 0.8 -0.8 1.4 -1.2 1.3 -0.3 -0.1 -3.2 -0.6 -6.4 -1.3z"/>
  <path d="M310 256.3 c-7.9 -1.2 -9 -1.5 -9 -2.7 0 -2 2.1 -2.5 7.5 -1.9 6.3 0.6 9.5 1.9 9.5 3.8 0 1.5 -2.2 1.7 -8 0.8z"/>
  <path d="M106 251.5 c0 -0.8 0.6 -1.5 1.3 -1.5 0.6 0 2.3 -0.3 3.7 -0.6 2 -0.4 2.2 -0.3 1 0.5 -1 0.7 -1.1 1.1 -0.2 1.1 0.6 0 1.2 0.5 1.2 1 0 0.6 -1.6 1 -3.5 1 -2.4 0 -3.5 -0.5 -3.5 -1.5z"/>
  <path d="M235.9 243.3 c-3.1 -8.7 -3.8 -9.4 -10.2 -9.7 -1.1 -0.1 -2.2 -0.8 -2.4 -1.6 -0.4 -1.3 -0.3 -1.3 0.6 0 1 1.3 1.3 1.3 2.2 -0.2 0.5 -1 1.7 -1.8 2.5 -1.8 1.8 0 1.3 -2.2 -2.2 -9.2 -1.3 -2.7 -2.1 -4.8 -1.8 -4.8 0.2 0 0 -0.8 -0.5 -1.8 -0.6 -1 -0.7 -2.8 -0.4 -4 0.7 -2.7 4.7 -2.9 9.8 -0.5 2.8 1.3 3.5 2.2 3.5 4.5 0 2.8 0 2.8 -2.5 1.2 -1.3 -0.8 -3.1 -1.4 -3.9 -1.2 -1.3 0.3 -1.2 1.1 0.4 5.7 2.3 6.3 2.4 6.5 4.5 5.8 2.4 -1 4.2 -5.6 2.6 -6.7 -1 -0.6 -0.8 -1 0.9 -1.5 2.5 -0.8 4.3 1 3.5 3.3 -0.3 0.8 -0.5 2 -0.5 2.7 0 2.4 -5 7.4 -6.8 6.9 -1.5 -0.5 -1.5 -0.5 0 0.6 2.6 1.6 3.8 4.4 4.4 10 0.5 4.1 0.3 5 -1.1 5 -0.8 0 -2 -1.2 -2.6 -2.7z"/>
  <path d="M56.8 228.4 c-0.4 -0.6 -0.1 -1.9 0.6 -2.9 0.9 -1.3 1.5 -1.5 2 -0.7 0.4 0.7 0.3 1.2 -0.3 1.2 -0.5 0 -1.1 0.8 -1.3 1.8 -0.2 1.1 -0.6 1.3 -1 0.6z"/>
  <path d="M113.7 228.4 c-1.6 -1.6 -0.5 -4.2 3.3 -7.9 2.2 -2.1 3.8 -4.1 3.5 -4.3 -0.3 -0.3 0.8 -1.6 2.3 -2.9 2.6 -2.2 2.7 -2.2 3 -0.4 0.5 2.9 -1.6 6.1 -3.8 6.1 -1.3 0 -2 0.7 -2 1.8 0 2.2 -5.2 8.6 -6.3 7.6z"/>
  <path d="M53.5 224 c-0.3 -1.1 -1.3 -2.7 -2.2 -3.5 -0.8 -0.9 -1.3 -1.9 -0.9 -2.2 0.9 -1 4.6 2.8 3.9 4 -0.4 0.6 0 0.8 1 0.4 2.1 -0.8 2.2 0 0.3 1.9 -1.3 1.2 -1.5 1.1 -2.1 -0.6z"/>
  <path d="M328 214.5 c0 -0.8 0.7 -1.5 1.5 -1.5 0.8 0 1.5 0.7 1.5 1.5 0 0.8 -0.7 1.5 -1.5 1.5 -0.8 0 -1.5 -0.7 -1.5 -1.5z"/>
  <path d="M326.6 209.8 c-0.8 -3.3 -0.8 -3.8 0.8 -3.8 1.4 0 2.6 2.1 2.6 4.6 0 2.3 -2.7 1.6 -3.4 -0.8z"/>
  <path d="M214 203.6 c0 -2 0.4 -2.3 2.2 -1.8 1.9 0.4 2 0.2 1.3 -1.9 -0.4 -1.3 -0.8 -3.4 -0.9 -4.6 0 -1.4 -0.7 -2.3 -1.7 -2.3 -1.2 0 -1.4 -0.8 -1.1 -3.1 0.3 -2.3 0.9 -2.9 2.4 -2.7 2.6 0.4 6.5 10.5 6 15.4 -0.4 3.2 -0.6 3.4 -4.3 3.4 -3.5 0 -3.9 -0.3 -3.9 -2.4z"/>
  <path d="M135 200.9 c2.8 -2.4 3.6 -2.7 3.8 -1.4 0.7 3 -0.7 4.5 -4 4.5 l-3.3 -0.1 3.5 -3z"/>
  <path d="M142.2 194 c0.7 -1.1 1.6 -2 2 -2 0.4 0 3.2 -2.3 6.3 -5.2 4.5 -4.1 15.4 -11.8 16.8 -11.8 0.2 0 0.3 0.9 0.4 2 0.1 1.3 -1.4 2.8 -4.7 4.9 -2.6 1.6 -7.8 5.5 -11.4 8.5 -6.7 5.7 -11.9 7.7 -9.4 3.6z"/>
  <path d="M115.2 186 c-0.6 -1 -0.8 -2.1 -0.5 -2.4 1.2 -1.1 2.8 -0.6 4 1.3 1 1.6 0.9 2 -0.6 2.4 -1 0.2 -2.3 -0.3 -2.9 -1.3z"/>
  <path d="M121.7 176.3 c-1.4 -1.3 -0.7 -3.4 1.1 -3.1 1.9 0.3 1.9 0 0.4 -9.7 -0.7 -4.5 -0.6 -5.8 0.5 -6.2 2 -0.8 2.3 -0.2 3.7 7.9 1.6 9.5 1.2 11.8 -2.3 11.8 -1.5 0 -3.1 -0.3 -3.4 -0.7z"/>
  <path d="M170.6 175.1 c-1.7 -0.7 -1.6 -1 1.5 -2.8 4.7 -3 16.1 -8.3 17.7 -8.3 0.6 0 1.2 0.7 1.2 1.5 0 0.9 -3.6 3.3 -9.2 6 -5.1 2.5 -9.3 4.5 -9.3 4.4 0 0 -0.9 -0.4 -1.9 -0.8z"/>
  <path d="M113 168.4 c-2.3 -2.4 -4.6 -4.4 -5.1 -4.4 -0.5 0 -0.9 -0.7 -0.9 -1.5 0 -2.8 2.9 -1.5 8.6 3.8 5.1 4.7 5.5 5.4 3.7 5.9 -1.5 0.4 -3.2 -0.6 -6.3 -3.8z"/>
  <path d="M298.9 164.5 c-2 -0.7 -8.7 -2.3 -15 -3.5 -10.5 -2.1 -13.1 -2.2 -32.9 -1.5 -11.8 0.4 -25 1 -29.2 1.4 -6.1 0.5 -7.9 0.4 -8.3 -0.7 -0.9 -2.4 -0.6 -3 1.8 -3.1 1.2 -0.1 8.7 -0.6 16.7 -1.1 18.4 -1.3 40.6 -1.7 44.5 -0.9 1.7 0.4 6.2 1.2 10 1.9 11.2 1.9 20.6 5.2 20.3 7 -0.4 2 -3.4 2.2 -7.9 0.5z"/>
  <path d="M196 164 c-1.6 -1 -0.8 -2.3 1.7 -2.6 0.9 -0.2 2.8 -0.6 4.2 -1 1.4 -0.4 2.9 -0.7 3.4 -0.6 0.4 0.1 0.7 -0.2 0.7 -0.8 0 -0.5 1.1 -0.9 2.5 -0.8 1.4 0.1 2.5 0.5 2.5 0.8 -0.1 1.8 -2.3 3.3 -6.1 4.1 -2.4 0.5 -5.1 1.2 -5.9 1.4 -0.8 0.3 -2.2 0 -3 -0.5z"/>
  <path d="M186 155.5 c-2.3 -2.5 -2.1 -2.9 1.3 -2.6 1.8 0.2 2.4 -0.8 3 -4.9 0.3 -2.1 3.7 -4.4 3.7 -2.5 0 1.8 -2.4 10.2 -3.3 11.3 -1.3 1.7 -2 1.5 -4.7 -1.3z"/>
  <path d="M121.3 145.6 c-0.2 -3.8 0.7 -6.6 2.2 -6.6 2.3 0 2.1 7.6 -0.3 8.2 -1.3 0.4 -1.8 -0.1 -1.9 -1.6z"/>
  <path d="M331.5 146 c-1.9 -0.7 -1.9 -0.8 -0.2 -1.5 1.9 -0.8 3.1 -0.2 2.6 1.3 -0.2 0.5 -1.3 0.6 -2.4 0.2z"/>
  <path d="M302.8 123.2 c-1.3 -1.2 -1.4 -2 -0.6 -3.8 0.6 -1.3 1.9 -2.4 2.9 -2.4 1.5 0 1.6 0.4 0.7 3.8 -0.5 2 -1.1 3.7 -1.2 3.8 0 0 -0.8 -0.6 -1.8 -1.4z"/>
  <path d="M47.5 119.8 c0.9 -7.5 1.6 -9.8 3.1 -9.8 1.2 0 1.4 1.4 1.2 6.8 -0.3 6.1 -0.5 6.7 -2.5 7 -2.1 0.3 -2.3 0 -1.8 -4z"/>
  <path d="M309 108.6 c0 -0.7 -0.6 -1.9 -1.4 -2.5 -0.8 -0.7 -1.6 -4.4 -2 -9.4 -0.4 -4.5 -0.9 -9.2 -1.2 -10.4 -0.5 -1.8 -0.2 -2.1 1.4 -1.6 1.5 0.3 2.3 2.2 3.6 7.9 0.9 4.1 1.6 8.5 1.6 9.9 0 1.3 0.4 2.6 1 3 0.5 0.3 0.7 1.2 0.4 2 -0.8 1.9 -3.4 2.8 -3.4 1.1z"/>
  <path d="M354.6 107.3 c-1.1 -1.2 -0.6 -6.9 0.8 -8.9 1.6 -2 1.8 -1.8 2.9 3.3 0.5 2.3 -2.5 6.8 -3.7 5.6z"/>
  <path d="M184.1 52.8 c0.3 -5.7 5.6 -12.8 9.5 -12.8 l2.8 0 -3 3.3 c-1.7 1.7 -3.9 4.9 -4.9 7 -1.9 3.5 -4.6 5.1 -4.4 2.5z"/>
  <path d="M309.3 22.3 c-1.6 -0.6 -1.7 -4.6 -0.1 -4.1 0.6 0.2 1.2 1.4 1.3 2.6 0.1 1.2 0.1 2.2 0.1 2.1 -0.1 0 -0.7 -0.3 -1.3 -0.6z"/>
 </g>
 <g fill="#1d150f">
  <path d="M281.5 451.7 c-1.2 -4.2 -1.3 -5.8 -0.2 -4.8 0.7 0.5 2.8 1.2 4.8 1.6 2.8 0.5 3.6 1.1 3.2 2.4 -0.5 2.1 -7.2 2.8 -7.8 0.8z"/>
  <path d="M178.9 433.8 c-2.3 -2.9 -4.6 -5.2 -5.1 -5 -0.5 0.1 -0.7 -0.2 -0.3 -0.7 0.3 -0.6 2.9 0.6 6.1 2.7 3 2 5.1 3.8 4.5 4 -0.5 0.2 -0.7 1.2 -0.4 2.2 0.8 3.2 -0.4 2.4 -4.8 -3.2z"/>
  <path d="M241.8 410.3 c-1.6 -0.2 -2.8 -0.6 -2.8 -0.8 0 -1.5 1.5 -3.5 2.5 -3.5 0.8 0 2.7 -1.2 4.4 -2.6 1.8 -1.5 3.8 -2.3 4.7 -2 2.3 0.9 3.1 -2.4 0.9 -4 -1.8 -1.3 -1.8 -1.5 0 -5.5 1 -2.2 2.8 -4.7 3.9 -5.5 2.3 -1.6 8.2 -1.9 9.1 -0.5 0.3 0.6 2.5 0.3 5.3 -0.6 2.6 -0.9 5.3 -1.7 5.9 -1.9 0.7 -0.2 1 -1 0.7 -1.9 -0.5 -1.1 0.1 -1.5 2 -1.6 4.8 -0.3 5.1 -0.4 5.8 -1.4 0.5 -0.6 0.8 -0.5 0.8 0.4 0 1 1.2 1.2 5.3 0.7 6.9 -0.8 8 -0.1 6.5 4.7 -0.8 2.5 -1.7 3.7 -3 3.7 -1 0 -1.8 0.6 -1.8 1.3 0 0.7 -1.3 2.1 -3 3 -1.7 1 -3 1.3 -3 0.8 0 -0.6 -0.4 -1.1 -1 -1.1 -0.5 0 -1 1.1 -1 2.5 0 2.7 -1.7 3.2 -4.8 1.6 -0.9 -0.6 -2.9 -1.2 -4.4 -1.5 -1.5 -0.4 -3.3 -1.3 -4.2 -2.1 -1.3 -1.4 -1.7 -1.3 -3.3 1.1 -6.1 8.7 -8.1 10.9 -10.1 11.2 -1.2 0.2 -2.2 1 -2.2 1.7 0 2.6 -7.3 4.7 -13.2 3.8z"/>
  <path d="M121.1 400.7 c-1.7 -2.2 -3.1 -5 -3.1 -6.1 -0.1 -1.2 -0.2 -4.4 -0.3 -7.2 -0.2 -4.4 0 -5 1.5 -4.6 1.2 0.3 1.8 1.5 1.9 3.3 0.2 3.5 0.2 3.5 1.8 8.1 0.7 2.1 2.4 4.7 3.8 5.8 1.4 1.1 2.2 2 1.8 2 -0.4 0 -0.2 0.6 0.4 1.4 1 1.2 0.7 1.5 -1.7 1.4 -2.3 -0.1 -3.8 -1.1 -6.1 -4.1z"/>
  <path d="M219.2 361.7 c-1.2 -1.3 -2.2 -3.3 -2.2 -4.6 0 -1.2 -0.3 -2 -0.7 -1.8 -0.5 0.3 -0.8 -1.4 -0.8 -3.8 0 -2.4 0.3 -4.1 0.8 -3.8 0.4 0.2 0.7 -0.5 0.7 -1.7 0 -1.1 1 -3.1 2.3 -4.4 1.2 -1.2 2.3 -3.5 2.5 -5.1 0.1 -1.6 0.4 -3 0.7 -3.3 1 -1 3.6 0.9 4.5 3.4 0.6 1.4 1.9 2.8 3 3.1 2.1 0.6 2.7 2.8 1 3.8 -0.6 0.3 -0.7 1.7 -0.4 3.1 0.7 2.6 -0.5 3.1 -2.4 1.2 -0.9 -0.9 -1.2 -0.7 -1.2 1.3 0 4.8 1.1 6.9 3.6 6.9 3.2 0 3 2 -0.4 5.3 -3.6 3.4 -8 3.6 -11 0.4z"/>
  <path d="M156 351.6 c0 -2.4 -0.1 -3 -1 -4.6 -0.6 -1.2 -0.3 -1.6 1.1 -1.6 2.6 0 3.6 4 1.5 6.1 -1.4 1.5 -1.6 1.5 -1.6 0.1z"/>
  <path d="M284 338.9 c0 -0.5 -0.4 -0.7 -1 -0.4 -1.2 0.7 -1.3 -8.1 -0.3 -16.4 0.5 -4 1.1 -5.5 2.5 -5.9 1 -0.2 1.8 -0.8 1.8 -1.3 0 -1.7 4.7 2.1 5.8 4.7 0.7 1.4 1.2 6.1 1.2 10.4 0 6.4 -0.3 8 -1.5 8 -0.8 0 -1.5 0.5 -1.5 1 0 0.6 -1.6 1 -3.5 1 -1.9 0 -3.5 -0.5 -3.5 -1.1z"/>
  <path d="M204.2 335.1 c-2.1 -0.6 -2.1 -0.8 2.1 -6.1 6.6 -8.2 10.3 -12 12.1 -12 2.8 0 1.7 3.3 -3.4 10.2 -5.5 7.4 -7.4 8.8 -10.8 7.9z"/>
  <path d="M147.2 330.7 c-2.5 -2.9 8.6 -17.7 13.2 -17.7 2.3 0 2 1.3 -1 4.1 -2.8 2.6 -8.4 10.5 -8.4 11.8 0 0.5 -0.6 1.4 -1.4 2 -1 0.8 -1.6 0.8 -2.4 -0.2z"/>
  <path d="M136.4 306.3 c-0.4 -1 -0.9 -3 -1.1 -4.5 -0.7 -4.5 2.1 -3.3 3.9 1.7 1.6 4.3 1.6 4.5 -0.1 4.5 -1.1 0 -2.2 -0.8 -2.7 -1.7z"/>
  <path d="M277.9 298.8 c-0.8 -0.8 -1.9 -1.3 -2.5 -1.1 -0.6 0.2 -1.4 -0.4 -1.8 -1.4 -0.3 -1 -0.9 -2.4 -1.2 -3.2 -0.5 -1 -0.1 -1.2 1.7 -0.8 1.3 0.3 4 -0.1 5.9 -0.8 2.9 -1 4.4 -1 8.3 0.2 2.6 0.8 5.2 1.1 5.7 0.8 1 -0.6 2.4 3.1 1.6 4.4 -0.3 0.4 -2.5 1.1 -4.8 1.4 -2.4 0.3 -5.9 0.9 -7.9 1.2 -2.5 0.5 -4 0.3 -5 -0.7z"/>
  <path d="M130.3 291.3 c-0.7 -0.2 -1.3 -1.2 -1.3 -2.1 0 -1.9 -4.1 -10.5 -5.3 -11 -0.4 -0.2 -0.4 -0.8 -0.1 -1.3 0.3 -0.6 -0.2 -1.9 -1.2 -3 -0.9 -1 -1.8 -3.8 -1.9 -6.1 -0.1 -2.4 -1 -6 -1.9 -8 -0.9 -2.1 -1.6 -4.9 -1.6 -6.3 0 -1.5 -0.5 -3.5 -1.1 -4.6 -1.2 -2.2 -1.8 -4.8 -2.5 -9.5 -0.6 -4.3 1.9 -4 3.9 0.5 1.7 3.8 5.1 16.6 7.1 26.6 0.7 3.3 3.1 10 5.4 14.8 2.3 4.9 4.2 9.2 4.2 9.8 0 1 -1.7 1.1 -3.7 0.2z"/>
  <path d="M332.3 260.2 c-1.3 -0.2 -2.3 -0.9 -2.3 -1.5 0 -0.9 -0.2 -0.9 -0.8 0 -0.8 1.3 -5.2 0.6 -5.2 -0.8 0 -0.5 -0.7 -0.6 -1.5 -0.3 -0.9 0.4 -1.5 0 -1.5 -0.7 0 -1.1 -0.3 -1.1 -1 0.1 -0.8 1.2 -1 1.1 -1 -0.7 0 -1.3 0.7 -2.3 1.8 -2.5 2.5 -0.5 10.5 1.4 13 3.2 2.6 1.8 1.7 3.7 -1.5 3.2z"/>
  <path d="M94.5 251.5 c-3.5 -1.8 -6.7 -5.3 -5.9 -6.6 0.3 -0.5 2.3 0 4.4 1.1 2.2 1.1 6.7 2.6 10.2 3.3 3.4 0.6 6.3 1.8 6.6 2.5 0.6 1.8 -11.5 1.6 -15.3 -0.3z"/>
  <path d="M236.4 243.8 c-0.4 -1.3 -0.7 -2.9 -0.6 -3.5 0.2 -0.7 -0.2 -1.3 -0.8 -1.3 -0.5 0 -1 -0.6 -1 -1.3 0 -2.6 -3.4 -5.6 -5.2 -4.6 -1.1 0.6 -1.9 0.6 -2.3 -0.1 -0.8 -1.4 0.3 -3 2.1 -3 0.8 0 1.4 -1 1.4 -2.4 0 -3.2 -1 -5.7 -2 -5.1 -0.5 0.3 -0.6 -0.3 -0.4 -1.2 0.8 -3 -5.7 -12.1 -9.4 -13.4 -1.8 -0.6 -3.6 -1.7 -3.9 -2.4 -0.2 -0.8 -1.1 -1.1 -1.9 -0.8 -0.9 0.3 -1.4 -0.2 -1.4 -1.5 0 -1.1 -0.4 -2.2 -0.9 -2.4 -0.4 -0.1 -0.5 -1.2 -0.2 -2.2 0.7 -1.7 1 -1.6 3.9 1.3 1.8 1.7 3.7 3.1 4.3 3.1 1.1 0 0 -5.3 -1.3 -5.8 -0.4 -0.2 -0.8 -1 -0.8 -1.7 0 -0.7 -0.7 -1.6 -1.5 -1.9 -2.5 -0.9 0.7 -6.4 3.7 -6.4 1.3 0 3.8 -0.3 5.5 -0.6 3.6 -0.6 8.3 0.8 8.3 2.4 0 0.6 -0.4 0.9 -0.9 0.6 -1.3 -0.8 -11.1 1.7 -11.1 2.9 0 0.5 1.1 3.7 2.5 7 2.5 5.8 2.9 6.2 10.3 10 6 3.2 7.9 4.7 8.9 7.3 1.2 2.8 1.1 3.3 -0.2 3.9 -1.1 0.3 -2.5 -0.6 -4.3 -2.8 -4.5 -5.6 -6.1 -6.9 -8.2 -6.9 -1.8 0 -1.7 0.5 1.4 7.7 2.6 6.1 3.7 7.7 5.6 8 3.3 0.5 3.6 1.1 1.8 2.9 -1.4 1.4 -1.3 2 0.9 6.6 2.5 5.3 2.5 9.8 -0.2 9.8 -0.7 0 -1.7 -1 -2.1 -2.2z"/>
  <path d="M96.8 239.3 c-1 -0.2 -1.8 -0.8 -1.8 -1.1 0 -0.4 -1.3 -0.7 -2.9 -0.8 -3.8 -0.1 -10.5 -3.5 -10.9 -5.5 -0.3 -1.4 0.3 -1.4 5.5 0.3 3.2 1 6.7 2.3 7.8 2.7 1.1 0.5 2.8 1.2 3.8 1.5 0.9 0.3 1.7 1.2 1.7 2.1 0 1.5 -0.2 1.6 -3.2 0.8z"/>
  <path d="M61 231.5 c0 -0.8 0.6 -1.5 1.4 -1.5 0.8 0 1.6 0.7 2 1.5 0.4 1 -0.1 1.5 -1.4 1.5 -1.1 0 -2 -0.7 -2 -1.5z"/>
  <path d="M59.1 229 c-0.1 -1.8 -0.4 -2.1 -1 -1.1 -0.5 0.7 -1.1 0.9 -1.4 0.4 -0.4 -0.6 0 -1.8 0.7 -2.8 1.3 -1.8 1.4 -1.8 2.3 0.1 0.6 1.1 0.7 2.8 0.2 3.9 -0.7 1.8 -0.8 1.8 -0.8 -0.5z"/>
  <path d="M116.2 224.4 c-0.8 -0.9 0.4 -3 4.9 -8.2 3.2 -3.9 5.9 -7.5 5.9 -8.1 0 -0.5 2.6 -3 5.9 -5.5 3.2 -2.5 7.1 -5.9 8.5 -7.6 1.4 -1.8 2.6 -2.9 2.6 -2.6 0 0.7 4.7 -3.2 9.3 -7.6 2.7 -2.7 6.7 -3.8 6.7 -1.9 0 0.5 -1 0.7 -2.2 0.3 -2.1 -0.5 -2.2 -0.4 -0.9 1.1 0.7 0.9 0.9 1.7 0.4 1.7 -1.6 0 -27.1 24.3 -31.2 29.6 -5.7 7.7 -8.6 10.2 -9.9 8.8z"/>
  <path d="M52.8 222.5 c-1 -2.3 -2 -2.9 -4 -2.6 -0.4 0 -1.2 -0.8 -1.8 -1.9 -0.9 -1.7 -0.8 -2 1.1 -2 1.2 0 1.9 0.3 1.6 0.7 -0.4 0.3 0.3 1.1 1.6 1.7 1.2 0.7 2.2 1.8 2.2 2.5 0 0.8 0.9 1.7 1.9 2.1 1.8 0.6 1.8 0.7 0.2 1.3 -1.2 0.5 -2 -0.1 -2.8 -1.8z"/>
  <path d="M89 219.9 c0 -0.5 -0.3 -0.8 -0.7 -0.8 -3.3 0.5 -6.4 -3.4 -4.4 -5.4 0.8 -0.8 1.1 -0.8 1.1 0.1 0 0.6 1.8 2.1 4 3.2 4.6 2.3 4.7 2.6 2 3.3 -1.1 0.3 -2 0.1 -2 -0.4z"/>
  <path d="M38.8 211.7 c-2.3 -2.5 -4.4 -6.2 -5.4 -9.6 -0.9 -3.1 -3.6 -9.9 -6 -15.1 -5 -11.2 -7.5 -22.2 -6.7 -30 0.6 -6.1 2.1 -9.6 6.8 -15.5 1.7 -2.2 4.6 -6.4 6.4 -9.2 2.8 -4.5 3.8 -5.3 6.3 -5.3 6.3 0 7.9 -2.9 8.7 -15.1 0.1 -2.2 4 -6.2 7.6 -7.9 3.8 -1.9 4.6 -3 3.5 -5 -3.7 -6.8 6.6 -22.3 18.8 -28.2 6.4 -3.1 7.2 -3.3 17.2 -3.1 10.2 0.1 10.7 0.2 16.7 3.9 3.4 2 6 4.1 5.7 4.5 -1 1.6 -4.7 0.9 -9.1 -1.6 -3 -1.8 -6.2 -2.7 -10.7 -3 -3.5 -0.2 -7.6 -0.7 -9 -1.1 -1.6 -0.4 -2.6 -0.2 -2.6 0.4 0 0.6 -2.8 2.4 -6.3 4.1 -6.7 3.2 -11 7.7 -15.1 15.7 -1.9 3.8 -2.2 5.2 -1.4 7.6 0.5 1.5 1.6 2.8 2.4 2.8 0.8 0 1.4 0.9 1.4 2 0 1.4 -0.7 2 -2.2 2 -2.3 0 -8 3 -10.2 5.3 -1.9 1.9 -3.6 6.9 -4.2 12.2 -0.6 5.8 -3.1 8.4 -8.1 8.5 -2.4 0 -3.7 0.7 -5 2.8 -1 1.5 -3.3 4.7 -5.2 7.2 -10.1 13.5 -10.4 25.7 -1.1 45.5 2.1 4.4 4.6 10.7 5.5 13.9 1.1 3.6 3.1 7.4 5.3 9.8 2.3 2.6 2.9 3.8 1.9 3.8 -0.8 0 -1.7 0.4 -1.9 0.9 -0.1 0.4 -2 -1 -4 -3.2z"/>
  <path d="M159.5 181 c-1.1 -0.5 -1.4 -0.9 -0.7 -0.9 0.7 -0.1 2 -0.8 2.9 -1.6 1.6 -1.7 3.4 -1.6 4 0.2 0.3 0.7 -0.4 0.9 -1.9 0.5 -2.1 -0.5 -2.2 -0.4 -0.9 1.1 1.1 1.4 1.1 1.7 0 1.6 -0.8 0 -2.3 -0.4 -3.4 -0.9z"/>
  <path d="M119.1 174.4 c-4.7 -4.5 -5.3 -7.2 -1.1 -5 1.4 0.7 2.4 1.8 2.3 2.4 -0.2 0.7 0.1 1.2 0.6 1.2 0.5 0 1.7 0.3 2.7 0.7 1.4 0.5 1.6 0.2 1.2 -1.9 -0.4 -2.1 -0.1 -2.4 1.4 -2 2.2 0.5 1.8 -0.2 2.3 5.2 0.2 2.5 0.2 3.9 -0.1 3.3 -0.6 -1.4 -4 -1.8 -4.6 -0.5 -0.1 0.4 -2.3 -1.2 -4.7 -3.4z"/>
  <path d="M183 167.2 c0 -0.4 9.3 -4.5 10 -4.5 0.3 0.1 1.2 -0.3 2.1 -0.8 1 -0.5 2 -0.4 2.7 0.3 1.9 1.9 1.4 2.9 -1.3 2.2 -1.9 -0.5 -2.5 -0.2 -2.5 1 0 1 -0.9 1.6 -2.2 1.7 -6.4 0.4 -8.8 0.4 -8.8 0.1z"/>
  <path d="M307.2 166.8 c-2.4 -0.5 -4.6 -1.6 -4.9 -2.5 -0.3 -0.8 -1.5 -1.9 -2.7 -2.4 -1.5 -0.7 -0.9 -0.8 2.4 -0.4 6.5 0.8 11.5 2.6 10 3.5 -0.7 0.4 -0.9 1.3 -0.6 1.9 0.4 0.6 0.6 1.1 0.4 1 -0.2 -0.1 -2.2 -0.5 -4.6 -1.1z"/>
  <path d="M108 164 c-0.4 -0.3 -0.9 -1.4 -1.1 -2.5 -0.3 -1.3 -1.4 -2.1 -3.1 -2.3 -2.3 -0.3 -3 -1 -3.9 -4.4 -0.7 -2.8 -0.7 -4.4 0 -5.1 1.4 -1.4 4.8 1.7 6.5 5.8 0.7 1.7 2.7 4.4 4.3 6 l3 3 -2.5 0 c-1.3 0 -2.7 -0.2 -3.2 -0.5z"/>
  <path d="M206.8 161.2 c-2.1 -0.8 -0.8 -3.7 1.3 -3 0.8 0.3 2.2 0.1 3.2 -0.4 1 -0.5 2.7 -0.6 3.7 -0.3 1.7 0.5 1.8 1 0.8 2.8 -0.7 1.4 -1.3 1.7 -1.6 0.9 -0.4 -1.4 -4.2 -1.6 -4.2 -0.2 0 1.1 -0.7 1.2 -3.2 0.2z"/>
  <path d="M223 159.7 c0 -0.4 -1 -1.2 -2.2 -1.7 -1.8 -0.7 -1 -0.9 3.7 -1.1 5.8 -0.2 10.7 -0.2 13.3 0 0.6 0.1 1.2 0.8 1.2 1.6 0 1.7 -0.1 1.7 -9.2 1.9 -3.8 0.1 -6.8 -0.2 -6.8 -0.7z"/>
  <path d="M285.1 160.3 c-0.1 -0.8 -1.3 -1 -3.6 -0.6 -2 0.3 -3.5 0.1 -3.5 -0.4 0 -0.6 -1.1 -0.8 -2.5 -0.5 -1.5 0.2 -2.5 0 -2.5 -0.7 0 -0.6 -0.7 -1.1 -1.5 -1.1 -0.8 0 -1.5 0.5 -1.5 1 0 1.5 -8.9 1.2 -10.5 -0.4 -1.2 -1.1 -0.7 -1.5 3.3 -2.1 7.5 -1.1 10.6 -1.3 11.7 -0.7 0.5 0.3 1.6 0.7 2.5 0.7 6 0.6 12.1 1.8 12.6 2.6 0.3 0.5 -0.4 0.9 -1.5 0.9 -1 0 -2.2 0.6 -2.4 1.3 -0.4 0.8 -0.6 0.9 -0.6 0z"/>
  <path d="M250.4 155.6 c-1.4 -1 -1.1 -1.2 1.6 -1 3.9 0.3 4.8 1 2.1 1.7 -1.1 0.3 -2.8 -0.1 -3.7 -0.7z"/>
  <path d="M122.7 145.9 c-1.7 -1 -1.7 -3 -0.2 -8 0.6 -1.7 1.2 -1.9 3.3 -1.4 1.5 0.3 3.3 1.4 4 2.3 1.1 1.5 1 1.8 -1.4 2.2 -2.5 0.5 -4.7 3.5 -3.7 5.3 0.5 0.9 0.2 0.9 -2 -0.4z"/>
  <path d="M130.2 77.8 c-2 -2 -1.4 -2.8 2.1 -2.8 3.8 0 6.2 1.3 5.3 2.9 -0.9 1.5 -5.9 1.4 -7.4 -0.1z"/>
  <path d="M147.8 61 c-1.5 -1.4 -1.6 -1.9 -0.3 -3.7 0.8 -1.1 4.2 -4 7.5 -6.4 3.4 -2.4 6.8 -5 7.6 -5.7 0.7 -0.7 3.7 -1.5 6.6 -1.9 2.9 -0.3 5.8 -1 6.3 -1.7 1.7 -1.9 6.1 -3.8 8 -3.4 3.1 0.5 2.8 2.6 -0.7 4.4 -1.8 0.9 -4.1 2.4 -5.2 3.3 -2 1.7 -7.7 2.2 -8.7 0.7 -1 -1.3 -5.9 0.2 -5.9 1.8 0 0.8 -2.3 3.1 -5.1 5.2 -2.8 2.1 -5.9 4.9 -6.8 6.4 -1.5 2.5 -1.7 2.6 -3.3 1z"/>
  <path d="M187.6 46.9 c-1.8 -1.7 -1.8 -1.8 0.9 -2.5 1.8 -0.4 2.3 -0.9 1.5 -1.4 -1.7 -1 8.3 -11.1 12.8 -12.9 1.7 -0.7 3.2 -1.7 3.2 -2.2 0 -0.5 0.4 -0.9 0.8 -0.9 1.1 0 1.2 3.3 0.2 4 -0.4 0.3 -3.6 3 -7 6 -3.4 3 -6.6 5.7 -7.1 6 -0.4 0.3 -1.4 1.7 -2.1 3.1 -1.3 2.4 -1.4 2.5 -3.2 0.8z"/>
  <path d="M250.1 29 c-1.7 -1 -0.7 -4 1.4 -4 0.8 0 1.5 -0.4 1.5 -0.9 0 -0.5 1.6 -1.5 3.5 -2.1 4.1 -1.3 15.5 -1.9 15.5 -0.7 0 0.4 -0.7 0.7 -1.5 0.7 -0.8 0 -1.5 0.5 -1.5 1.1 0 0.8 -1.4 1 -4.5 0.6 -3.4 -0.5 -4.5 -0.3 -4.5 0.7 0 0.8 -0.7 1.6 -1.5 2 -0.8 0.3 -1.5 0.1 -1.5 -0.4 0 -0.6 -0.7 -1 -1.5 -1 -0.8 0 -1.2 0.6 -0.9 1.4 0.7 1.8 -2.7 3.8 -4.5 2.6z"/>
  <path d="M277 24.6 c0 -0.8 -1 -1.7 -2.2 -1.9 -1.3 -0.2 -0.5 -0.4 1.8 -0.3 3.6 0.1 4 0.3 3 1.9 -1.3 2.1 -2.6 2.2 -2.6 0.3z"/>
  <path d="M309 21.1 c-1.3 -2.6 -1.3 -3.4 0.2 -2.9 0.6 0.2 1.2 1.4 1.3 2.6 0.2 2.7 -0.1 2.8 -1.5 0.3z"/>
 </g>
</svg>