<?xml version="1.0" encoding="UTF-8"?>
<svg width="522px" height="624px" viewBox="0 0 522 624" version="1.1" xmlns="http://www.w3.org/2000/svg" xmlns:xlink="http://www.w3.org/1999/xlink">
    <title>Artboard</title>
    <g id="Artboard" stroke="none" stroke-width="1" fill="none" fill-rule="evenodd">
        <path d="M437.190794,423.681449 C441.094965,419.21359 446.855168,417.215089 454.471403,417.685944 C465.895754,418.392226 485.464843,432.080021 480.677927,458.390699 C475.891011,484.701377 464.497957,501.335458 436.012544,505.983502" id="Path-2" stroke="#000000" stroke-width="5" fill="#FFFFFF" stroke-linecap="round" stroke-linejoin="bevel"></path>
        <path d="M104.621886,463.588709 C108.0481,458.488849 113.745952,456.31579 121.715443,457.069533 C133.669679,458.200146 151.798293,473.419082 147.921967,497.774288 C144.045641,522.129493 130.664642,540.554294 103.256584,545.367091" id="Path-2" stroke="#000000" stroke-width="5" fill="#FFFFFF" stroke-linecap="round" stroke-linejoin="bevel" transform="translate(125.855889, 501.145520) scale(-1, 1) rotate(13.000000) translate(-125.855889, -501.145520) "></path>
        <g id="Group" transform="translate(14.043271, 23.160001)">
            <path d="M107.021935,282.614313 C83.6928991,280.843677 71.4098174,275.800404 70.17269,267.484493 C68.5534343,256.599934 52.8455879,259.491381 41.6423297,249.807418 C30.4390715,240.123455 36.8977917,232.827544 28.7633177,224.576412 C20.6288437,216.32528 8.92601594,207.828481 7.59886285,192.684937 C6.27170976,177.541393 -1.88746825,163.619323 0.403140347,146.235951 C2.69374894,128.852579 7.54389878,107.797286 26.6511268,96.5081973 C34.8502366,91.663932 42.0816427,89.4982158 48.3453449,90.0110486 C49.5430308,79.660078 52.1438117,72.6505503 56.1476875,68.9824657 C60.1515634,65.3143811 67.3724473,62.8206508 77.8103394,61.5012749 C76.7508129,42.7207549 83.4707549,31.01015 97.9701654,26.3694602 C119.719281,19.4084256 124.485778,19.6527206 139.254645,26.3694602 C149.100557,30.8472866 155.400531,34.9028579 158.154568,38.5361739 C161.21698,31.8295685 167.63793,27.7739972 177.417418,26.3694602 C187.196905,24.9649232 196.222854,26.499628 204.495265,30.9735746 C215.484616,17.5554875 226.219536,10.8201751 236.700025,10.7676376 C247.180513,10.7151001 255.685936,15.9157076 262.216295,26.3694602 C277.152793,7.33920933 288.207415,-1.39076106 295.380161,0.179549026 C302.552906,1.74985912 307.509006,4.39533647 310.248459,8.1159811 C317.276456,4.45596621 324.865277,4.45596621 333.014924,8.1159811 C341.164571,11.775996 348.05615,14.9984663 353.689663,17.783392 C358.015594,10.8049098 366.400181,7.58243945 378.843424,8.1159811 C391.286666,8.64952275 402.304099,14.7340158 411.895723,26.3694602 C417.707083,15.0381749 425.528823,11.2303284 435.360945,14.9459205 C450.109128,20.5193088 473.95177,39.2872427 474.699032,63.9514181 C475.197206,80.3942017 474.494406,91.2464615 472.590633,96.5081973 C483.058356,107.226141 487.724825,122.159128 486.590038,141.307156 C485.455252,160.455185 477.730013,181.464472 463.414323,204.335018 C468.163519,229.768181 452.828963,250.117035 417.410655,265.381581 L107.021935,282.614313 Z" id="Path-10" stroke="#000000" stroke-width="5" fill="#FFFFFF" stroke-linecap="round" stroke-linejoin="bevel"></path>
            <path d="M367.258161,193.41713 C401.043076,175.897191 419.309938,149.317853 422.058747,113.679115" id="Path-11" stroke="#000000" stroke-width="5" stroke-linecap="round" stroke-linejoin="bevel"></path>
            <path d="M326.965791,153.548123 C335.963968,146.023301 338.86353,124.903876 335.664476,90.1898473" id="Path-12" stroke="#000000" stroke-width="5" stroke-linecap="round" stroke-linejoin="bevel"></path>
            <path d="M338.788149,173.818247 C347.923305,163.310686 354.399197,148.100869 358.215824,128.188795" id="Path-13" stroke="#000000" stroke-width="5" stroke-linecap="round" stroke-linejoin="bevel"></path>
            <path d="M430.775132,211.695935 C439.62375,204.448337 443.893634,195.813245 443.584784,185.790657" id="Path-14" stroke="#000000" stroke-width="5" stroke-linecap="round" stroke-linejoin="bevel"></path>
            <path d="M431.922198,198.743296 C433.886722,195.291292 434.61754,191.870216 434.114653,188.480068" id="Path-15" stroke="#000000" stroke-width="5" stroke-linecap="round" stroke-linejoin="bevel"></path>
            <path d="M430.348349,171.479663 C440.742019,152.694202 441.769837,135.533957 433.431803,119.998929" id="Path-16" stroke="#000000" stroke-width="5" stroke-linecap="round" stroke-linejoin="bevel" transform="translate(434.673705, 145.739296) rotate(13.000000) translate(-434.673705, -145.739296) "></path>
            <path d="M262.216295,159.229931 C269.498711,147.912449 273.699846,139.007484 274.819697,132.515038" id="Path-17" stroke="#000000" stroke-width="5" stroke-linecap="round" stroke-linejoin="bevel"></path>
            <path d="M236.076724,171.902594 C243.268365,163.235956 247.838589,151.851261 249.787395,137.748509" id="Path-18" stroke="#000000" stroke-width="5" stroke-linecap="round" stroke-linejoin="bevel"></path>
            <path d="M90.8521248,261.191552 C78.9695815,257.46884 70.217568,252.368696 64.5960843,245.891118" id="Path-19" stroke="#000000" stroke-width="5" stroke-linecap="round" stroke-linejoin="bevel"></path>
            <path d="M100.363448,244.770114 C89.6448129,241.412091 79.8670832,233.391449 71.0302585,220.708189" id="Path-20" stroke="#000000" stroke-width="5" stroke-linecap="round" stroke-linejoin="bevel"></path>
            <path d="M135.617409,213.507715 C122.014197,193.394067 113.202662,175.301472 109.182804,159.229931" id="Path-21" stroke="#000000" stroke-width="5" stroke-linecap="round" stroke-linejoin="bevel"></path>
            <path d="M143.854078,183.998358 C136.212229,157.850423 137.985333,137.7693 149.173388,123.754988" id="Path-22" stroke="#000000" stroke-width="5" stroke-linecap="round" stroke-linejoin="bevel"></path>
            <path d="M123.377049,397.357508 C115.426556,365.082447 110.467004,339.356822 108.498393,320.180636 C106.529782,301.004449 106.529782,277.393826 108.498393,249.348766 C154.191817,207.689726 208.177553,185.935152 270.455604,184.085045 C317.326177,182.692651 365.298257,198.073992 414.371842,230.229069 C416.059496,254.658588 417.045348,272.849032 417.329397,284.800402 C417.613447,296.751772 417.15279,322.132503 415.947425,360.942596 L123.377049,397.357508 Z" id="Path-9" stroke="#000000" stroke-width="5" fill="#FFFFFF" stroke-linecap="round" stroke-linejoin="bevel"></path>
            <g id="Dollar-Sign" transform="translate(265.184698, 265.818110) rotate(-8.000000) translate(-265.184698, -265.818110) translate(239.056729, 222.318110)">
                <line x1="25.8984694" y1="0.5" x2="25.8984694" y2="86.5" id="Line" stroke="#000000" stroke-width="9" stroke-linecap="round"></line>
                <g id="s" transform="translate(0.000000, 9.978345)" fill="#000000" fill-rule="nonzero">
                    <g id="S" transform="translate(0.000000, 0.000000)">
                        <path d="M52.2559367,47.1424802 C52.2559367,51.119613 51.2317502,54.6930519 49.1833773,57.8627968 C47.1350044,61.0325418 44.1372032,63.5145119 40.1899736,65.3087071 C36.2427441,67.1029024 31.5628848,68 26.1503958,68 C19.6613896,68 14.3087071,66.7739666 10.0923483,64.3218997 C7.10202287,62.5576077 4.67238347,60.2027265 2.80343008,57.2572559 C0.934476693,54.3117854 0,51.4485488 0,48.6675462 C0,47.0527704 0.560686016,45.6697449 1.68205805,44.5184697 C2.80343008,43.3671944 4.23131047,42.7915567 5.96569921,42.7915567 C7.37115215,42.7915567 8.55980651,43.2401055 9.53166227,44.1372032 C10.503518,45.0343008 11.3333333,46.3649956 12.0211082,48.1292876 C12.8583993,50.2225154 13.7629727,51.9718558 14.7348285,53.3773087 C15.7066843,54.7827617 17.0747581,55.9415128 18.8390501,56.853562 C20.6033421,57.7656113 22.9208443,58.2216359 25.7915567,58.2216359 C29.7387863,58.2216359 32.9459103,57.3021108 35.4129288,55.4630607 C37.8799472,53.6240106 39.1134565,51.3289358 39.1134565,48.5778364 C39.1134565,46.3948989 38.4481091,44.623131 37.1174142,43.262533 C35.7867194,41.9019349 34.0672823,40.8627968 31.9591029,40.1451187 C29.8509235,39.4274406 27.0325418,38.6649077 23.5039578,37.8575198 C18.7792436,36.7510994 14.8245383,35.4577836 11.6398417,33.9775726 C8.45514512,32.4973615 5.92832014,30.4788918 4.05936675,27.9221636 C2.19041337,25.3654354 1.25593668,22.1882146 1.25593668,18.3905013 C1.25593668,14.7722076 2.24274406,11.5576077 4.21635884,8.74670185 C6.18997361,5.93579595 9.04573439,3.77528584 12.7836412,2.2651715 C16.5215479,0.755057168 20.9173263,0 25.9709763,0 C30.0079156,0 33.4991205,0.500879507 36.444591,1.50263852 C39.3900616,2.50439754 41.8346526,3.83509235 43.7783641,5.49472296 C45.7220756,7.15435356 47.1424802,8.89621812 48.0395778,10.7203166 C48.9366755,12.5444151 49.3852243,14.3236588 49.3852243,16.0580475 C49.3852243,17.64292 48.8245383,19.0708004 47.7031662,20.3416887 C46.5817942,21.612577 45.1838171,22.2480211 43.5092348,22.2480211 C41.9841689,22.2480211 40.8254178,21.8667546 40.0329815,21.1042216 C39.2405453,20.3416887 38.3808267,19.0932278 37.4538259,17.3588391 C36.2576957,14.876869 34.8223395,12.9406332 33.1477573,11.5501319 C31.473175,10.1596306 28.7818821,9.46437995 25.0738786,9.46437995 C21.6350044,9.46437995 18.8614776,10.2194371 16.7532982,11.7295515 C14.6451187,13.2396658 13.591029,15.0562885 13.591029,17.1794195 C13.591029,18.4951627 13.9498681,19.6314864 14.6675462,20.5883905 C15.3852243,21.5452946 16.3720317,22.3676341 17.6279683,23.055409 C18.883905,23.7431838 20.1547933,24.2814424 21.4406332,24.6701847 C22.7264732,25.058927 24.8496042,25.6270888 27.8100264,26.3746702 C31.5180299,27.2418646 34.8746702,28.1987687 37.8799472,29.2453826 C40.8852243,30.2919965 43.4419525,31.5628848 45.5501319,33.0580475 C47.6583113,34.5532102 49.3029903,36.444591 50.4841689,38.73219 C51.6653474,41.0197889 52.2559367,43.823219 52.2559367,47.1424802 Z" id="Path"></path>
                    </g>
                </g>
            </g>
        </g>
        <path d="M137.423566,420.007181 C137.347156,465.21667 141.240211,499.214316 149.10273,522.00012 C160.89651,556.178826 217.614696,611.423259 324.04633,603.936941 C430.477964,596.450624 440.305617,490.309842 440.305617,466.24633 C440.305617,450.203988 436.86731,422.822744 429.990696,384.102597 C388.745196,364.833224 344.496285,358.117593 297.243963,363.955703 C242.267556,370.748139 188.994091,389.431965 137.423566,420.007181 Z" id="Path" stroke="#000000" stroke-width="5" fill="#FFFFFF" stroke-linecap="round" stroke-linejoin="bevel"></path>
        <path d="M120.374451,468.020668 C126.513261,466.089347 134.24267,468.622467 134.065249,470.3392 C133.887827,472.055933 127.286036,470.069657 123.430984,471.330967 C119.575931,472.592278 115.738647,476.588909 114.496891,475.483797 C113.255136,474.378684 114.235641,469.95199 120.374451,468.020668 Z" id="Path-3" fill="#000000" transform="translate(124.047830, 471.500668) scale(-1, 1) rotate(23.000000) translate(-124.047830, -471.500668) "></path>
        <path d="M449.856806,427.812091 C455.918377,425.93982 463.890495,428.338472 463.547604,430.130622 C463.204713,431.922772 457.309698,429.824307 452.913339,431.12239 C448.51698,432.420472 445.221002,436.380331 443.979247,435.275219 C442.737491,434.170106 443.795236,429.684361 449.856806,427.812091 Z" id="Path-3" fill="#000000"></path>
        <path d="M291.915548,477.319962 C297.893145,481.140773 303.318216,482.158878 308.190761,480.374276 C316.600015,477.294332 321.027542,471.6471 321.473342,463.432582" id="Path-4" stroke="#000000" stroke-width="4" stroke-linecap="round" stroke-linejoin="bevel" transform="translate(306.694445, 472.329553) rotate(-15.000000) translate(-306.694445, -472.329553) "></path>
        <path d="M226.46981,414.323505 C239.54508,415.72981 247.782804,417.794479 251.182981,420.51751" id="Path-5" stroke="#000000" stroke-width="5" stroke-linecap="round" stroke-linejoin="bevel"></path>
        <path d="M352.83142,400.850423 C343.407246,404.001126 335.525674,410.151304 329.186704,419.300959" id="Path-6" stroke="#000000" stroke-width="5" stroke-linecap="round" stroke-linejoin="bevel"></path>
        <ellipse id="Oval" fill="#000000" cx="349.8" cy="435.8" rx="7" ry="13"></ellipse>
        <ellipse id="Oval" fill="#000000" transform="translate(234.900000, 445.400000) rotate(2.000000) translate(-234.900000, -445.400000) " cx="234.9" cy="445.4" rx="7" ry="13"></ellipse>
        <path d="M290.090463,529.820112 C295.262839,533.547767 299.86139,534.78238 303.886117,533.523953 C308.742895,532.005365 312.785165,528.143326 316.012926,521.937837" id="Path-7" stroke="#000000" stroke-width="6" stroke-linecap="round" stroke-linejoin="bevel"></path>
        <path d="M299.387769,496.733038 C303.126197,496.030834 306.836456,492.767712 311.714493,493.189239 C316.59253,493.610766 321.287717,497.582238 323.472181,499.503439 C325.656644,501.42464 330.12212,506.893822 334.785553,507.259521 C337.894507,507.50332 342.045499,507.128544 347.238526,506.135193 C343.715097,512.180254 338.439415,515.688833 331.411481,516.66093 C324.383548,517.633027 313.964694,512.52188 300.15492,501.32749 C294.831421,511.213159 289.106682,517.443599 282.980704,520.018809 C276.854725,522.59402 267.934881,521.930022 256.22117,518.026815 C261.169749,517.468238 264.738802,516.714956 266.92833,515.766967 C270.212622,514.344985 273.459323,512.054782 275.525842,507.31449 C277.592361,502.574199 280.061625,497.864296 284.995252,496.624976 C289.928879,495.385657 295.64934,497.435242 299.387769,496.733038 Z" id="Path-8" fill="#000000"></path>
    </g>
</svg>