<svg xmlns="http://www.w3.org/2000/svg"  viewBox="0 0 482.003 482.003" width="60px" height="60px"><path fill="#b9dcff" d="M183.689,313.232c9.38,9.37,9.38,24.57,0,33.94l-118.79,118.79c-9.37,9.38-24.57,9.38-33.94,0	l-14.93-14.93c-9.38-9.37-9.38-24.57,0-33.94l118.79-118.79c9.37-9.38,24.57-9.38,33.94,0L183.689,313.232z"/><path fill="#b9dcff" d="M464.359,156.032c11.07-9.93,11.55-27.12,1.03-37.64l-101.79-101.79 c-10.52-10.52-27.71-10.04-37.64,1.03l-96.71,107.96c-9.18,10.25-8.75,25.89,0.98,35.62l90.55,90.55 c9.73,9.73,25.37,10.16,35.62,0.98L464.359,156.032z M273.729,141.062c-3.52-3.51-3.52-9.21,0-12.72l65.67-65.68 c3.51-3.52,9.21-3.52,12.72,0c3.52,3.51,3.52,9.21,0,12.72l-65.67,65.68C282.951,144.58,277.229,144.583,273.729,141.062z M315.469,179.242c-1.75,1.76-4.06,2.64-6.36,2.64c-7.915,0-12.068-9.668-6.36-15.36l74.84-74.84c3.51-3.52,9.21-3.52,12.72,0 c3.52,3.51,3.52,9.21,0,12.72L315.469,179.242z M419.329,142.592l-65.68,65.67c-3.5,3.519-9.22,3.52-12.72,0 c-3.52-3.51-3.52-9.21,0-12.72l65.68-65.67c3.51-3.52,9.21-3.52,12.72,0C422.849,133.382,422.849,139.082,419.329,142.592z"/><path fill="#d1e7ff" d="M442.656,150.77c-7.311-3.436-14.814-6.511-22.457-9.188c2.62-3.52,2.33-8.52-0.87-11.71	c-3.51-3.52-9.21-3.52-12.72,0l-5.86,5.86c-11.09-2.8-23.04-4.93-35.76-6.01l25.32-25.32c3.52-3.51,3.52-9.21,0-12.72	c-3.51-3.52-9.21-3.52-12.72,0l-37.3,37.3c-17.54,0.45-33.7,2.92-48.32,6.55l60.15-60.15c3.52-3.51,3.52-9.21,0-12.72	c-3.51-3.52-9.21-3.52-12.72,0l-65.67,65.68c-3.48,3.47-3.52,9.08-0.12,12.6c-9.192,3.127-17.607,6.641-25.198,10.262	c-15.895,7.584-30.981-11.999-19.438-25.3c0.214-0.247,96.767-108.029,96.985-108.272c9.93-11.07,27.12-11.55,37.64-1.03	C471.612,124.615,465.6,118.582,466.27,119.311C480.987,135.35,462.357,160.028,442.656,150.77z"/><path fill="#d1e7ff" d="M184.497,314.078c5.71,6.277-3.642,14.988-9.644,8.988c-0.562-0.561-1.146-1.146-1.754-1.754	c-9.37-9.38-24.57-9.38-33.94,0c-0.067,0.067-118.804,118.804-118.871,118.872c-3.94,3.977-10.674,1.671-11.19-3.903	c-0.636-6.858,1.674-13.937,6.932-19.188l118.79-118.79c9.37-9.38,24.57-9.38,33.94,0	C184.525,314.068,183.864,313.382,184.497,314.078z"/><path fill="#2e58ff" d="M471.751,112.03L369.961,10.24c-14.132-14.132-37.265-13.607-50.701,1.393l-96.709,107.954	c-12.368,13.806-11.789,34.886,1.318,47.992l90.544,90.545c13.107,13.106,34.19,13.683,47.992,1.316l107.955-96.709	C485.242,149.399,485.989,126.269,471.751,112.03z M458.349,149.325l-107.955,96.709c-6.689,5.991-16.904,5.711-23.254-0.639	l-90.544-90.545c-6.351-6.35-6.631-16.564-0.638-23.254l96.709-107.954c6.56-7.321,17.78-7.462,24.566-0.674l101.79,101.79	C465.885,131.619,465.602,142.827,458.349,149.325z M390.309,104.41l-74.84,74.84c-3.516,3.515-9.213,3.514-12.728,0	c-3.515-3.515-3.515-9.214,0-12.729l74.84-74.84c3.515-3.514,9.213-3.514,12.728,0C393.825,95.196,393.825,100.895,390.309,104.41z M352.126,75.39l-65.676,65.676c-3.516,3.515-9.213,3.514-12.728,0c-3.515-3.515-3.515-9.214,0-12.729l65.676-65.676	c3.515-3.514,9.213-3.514,12.728,0C355.641,66.176,355.641,71.876,352.126,75.39z M419.329,129.865	c3.515,3.515,3.515,9.214,0,12.729l-65.676,65.676c-1.757,1.757-4.061,2.636-6.364,2.636c-7.946,0-12.051-9.678-6.364-15.364	l65.676-65.676C410.116,126.351,415.814,126.351,419.329,129.865z M241.539,227.724l-65.312,65.312	c-15.106-15.106-35.626-13.249-47.772-1.103L9.662,410.726c-12.866,12.867-12.866,33.803,0,46.67l14.933,14.934	c12.9,12.899,33.772,12.898,46.669,0l118.793-118.793c11.794-11.795,14.324-32.345-1.103-47.772l65.312-65.312	c3.515-3.515,3.515-9.214,0-12.729C250.752,224.21,245.054,224.21,241.539,227.724z M177.33,340.808L58.537,459.601	c-5.862,5.864-15.35,5.865-21.213,0L22.39,444.667c-5.849-5.849-5.849-15.364,0-21.213l118.793-118.793	c5.861-5.863,15.35-5.865,21.213,0l14.933,14.934C183.179,325.444,183.179,334.959,177.33,340.808z"/></svg>